<?xml version="1.0" encoding="iso-8859-1"?>
<!-- Generator: Adobe Illustrator 19.2.1, SVG Export Plug-In . SVG Version: 6.00 Build 0)  -->
<svg version="1.1" xmlns="http://www.w3.org/2000/svg" xmlns:xlink="http://www.w3.org/1999/xlink" x="0px" y="0px"
	 viewBox="0 0 30 30" style="enable-background:new 0 0 30 30;" xml:space="preserve">
<g id="Event">
</g>
<g id="Event_2">
</g>
<g id="Add_Event">
</g>
<g id="Remove_Event">
</g>
<g id="Event_Reminder">
</g>
<g id="Wine_Glass">
</g>
<g id="Toast">
</g>
<g id="Champagne">
</g>
<g id="Champagne_Open">
</g>
<g id="Alcohol_Drink">
</g>
<g id="Beer_Glass">
</g>
<g id="Party_Cake">
</g>
<g id="Pizza_Food">
</g>
<g id="Disco_Ball">
</g>
<g id="Equalizer">
</g>
<g id="DJ">
</g>
<g id="Tent">
</g>
<g id="Firework_1">
</g>
<g id="Firework_2">
	<g>
		<g>
			<path d="M25.5,15h-2c-0.276,0-0.5-0.224-0.5-0.5s0.224-0.5,0.5-0.5h2c0.276,0,0.5,0.224,0.5,0.5S25.776,15,25.5,15z M21.5,15h-2
				c-0.276,0-0.5-0.224-0.5-0.5s0.224-0.5,0.5-0.5h2c0.276,0,0.5,0.224,0.5,0.5S21.776,15,21.5,15z"/>
		</g>
		<g>
			<g>
				<path d="M5,15H4.5C4.224,15,4,14.776,4,14.5S4.224,14,4.5,14H5c0.276,0,0.5,0.224,0.5,0.5S5.276,15,5,15z"/>
			</g>
			<g>
				<path d="M7.399,15H6.6c-0.276,0-0.5-0.224-0.5-0.5S6.323,14,6.6,14h0.8c0.276,0,0.5,0.224,0.5,0.5S7.676,15,7.399,15z"/>
			</g>
			<g>
				<path d="M9.5,15H9c-0.276,0-0.5-0.224-0.5-0.5S8.724,14,9,14h0.5c0.276,0,0.5,0.224,0.5,0.5S9.776,15,9.5,15z"/>
			</g>
		</g>
		<g>
			<path d="M14.5,8C14.224,8,14,7.776,14,7.5v-1C14,6.224,14.224,6,14.5,6S15,6.224,15,6.5v1C15,7.776,14.776,8,14.5,8z M14.5,5
				C14.224,5,14,4.776,14,4.5v-1C14,3.224,14.224,3,14.5,3S15,3.224,15,3.5v1C15,4.776,14.776,5,14.5,5z M14.5,2
				C14.224,2,14,1.776,14,1.5v-1C14,0.224,14.224,0,14.5,0S15,0.224,15,0.5v1C15,1.776,14.776,2,14.5,2z"/>
		</g>
		<g>
			<path d="M14.5,26c-0.276,0-0.5-0.224-0.5-0.5v-2c0-0.276,0.224-0.5,0.5-0.5s0.5,0.224,0.5,0.5v2C15,25.776,14.776,26,14.5,26z
				 M14.5,22c-0.276,0-0.5-0.224-0.5-0.5v-2c0-0.276,0.224-0.5,0.5-0.5s0.5,0.224,0.5,0.5v2C15,21.776,14.776,22,14.5,22z"/>
		</g>
		<g>
			<g>
				<path d="M18.5,11c-0.128,0-0.256-0.049-0.354-0.146c-0.195-0.195-0.195-0.512,0-0.707l0.707-0.707
					c0.195-0.195,0.512-0.195,0.707,0s0.195,0.512,0,0.707l-0.707,0.707C18.756,10.951,18.628,11,18.5,11z"/>
			</g>
			<g>
				<path d="M20.725,8.776c-0.128,0-0.256-0.049-0.354-0.146c-0.195-0.195-0.195-0.512,0-0.707l1.517-1.517
					c0.195-0.195,0.512-0.195,0.707,0s0.195,0.512,0,0.707l-1.517,1.517C20.98,8.727,20.853,8.776,20.725,8.776z M23.759,5.741
					c-0.128,0-0.256-0.049-0.354-0.146c-0.195-0.195-0.195-0.512,0-0.707l1.517-1.517c0.195-0.195,0.512-0.195,0.707,0
					s0.195,0.512,0,0.707l-1.517,1.517C24.015,5.692,23.887,5.741,23.759,5.741z"/>
			</g>
			<g>
				<path d="M26.793,2.707c-0.128,0-0.256-0.049-0.354-0.146c-0.195-0.195-0.195-0.512,0-0.707l0.707-0.707
					c0.195-0.195,0.512-0.195,0.707,0s0.195,0.512,0,0.707l-0.707,0.707C27.049,2.658,26.921,2.707,26.793,2.707z"/>
			</g>
		</g>
		<g>
			<path d="M4.25,30c-0.037,0-0.075-0.004-0.114-0.013c-0.269-0.063-0.436-0.332-0.373-0.602c1.698-7.267,6.226-11.109,6.417-11.27
				c0.214-0.179,0.526-0.147,0.704,0.063c0.177,0.212,0.148,0.526-0.063,0.704c-0.044,0.037-4.465,3.804-6.083,10.73
				C4.683,29.845,4.478,30,4.25,30z"/>
		</g>
		<g>
			<g>
				<path d="M5.207,5.707c-0.128,0-0.256-0.049-0.354-0.146L4.146,4.854c-0.195-0.195-0.195-0.512,0-0.707s0.512-0.195,0.707,0
					l0.707,0.707c0.195,0.195,0.195,0.512,0,0.707C5.463,5.658,5.335,5.707,5.207,5.707z"/>
			</g>
			<g>
				<path d="M8.389,8.889c-0.128,0-0.256-0.049-0.354-0.146L6.444,7.152c-0.195-0.195-0.195-0.512,0-0.707s0.512-0.195,0.707,0
					l1.591,1.591c0.195,0.195,0.195,0.512,0,0.707C8.645,8.84,8.517,8.889,8.389,8.889z"/>
			</g>
			<g>
				<path d="M10.688,11.187c-0.128,0-0.256-0.049-0.354-0.146l-0.707-0.707c-0.195-0.195-0.195-0.512,0-0.707s0.512-0.195,0.707,0
					l0.707,0.707c0.195,0.195,0.195,0.512,0,0.707C10.943,11.138,10.815,11.187,10.688,11.187z"/>
			</g>
		</g>
		<g>
			<path d="M23.45,23.95c-0.128,0-0.256-0.049-0.354-0.146l-1.415-1.415c-0.195-0.195-0.195-0.512,0-0.707s0.512-0.195,0.707,0
				l1.415,1.415c0.195,0.195,0.195,0.512,0,0.707C23.706,23.901,23.578,23.95,23.45,23.95z M19.914,20.414
				c-0.128,0-0.256-0.049-0.354-0.146l-1.414-1.414c-0.195-0.195-0.195-0.512,0-0.707s0.512-0.195,0.707,0l1.414,1.414
				c0.195,0.195,0.195,0.512,0,0.707C20.17,20.365,20.042,20.414,19.914,20.414z"/>
		</g>
		<g>
			<g>
				<path d="M19.5,13c-0.202,0-0.393-0.124-0.468-0.325c-0.098-0.258,0.034-0.546,0.292-0.644l0.937-0.351
					c0.256-0.096,0.547,0.034,0.644,0.293c0.098,0.258-0.034,0.546-0.292,0.644l-0.937,0.351C19.618,12.99,19.559,13,19.5,13z"/>
			</g>
			<g>
				<path d="M22.479,11.883c-0.202,0-0.393-0.124-0.468-0.324c-0.098-0.259,0.033-0.547,0.292-0.644l2.042-0.766
					c0.257-0.096,0.547,0.034,0.644,0.292c0.098,0.259-0.033,0.547-0.292,0.644l-2.042,0.766
					C22.597,11.873,22.537,11.883,22.479,11.883z"/>
			</g>
			<g>
				<path d="M26.563,10.351c-0.202,0-0.393-0.124-0.468-0.325c-0.098-0.258,0.034-0.546,0.292-0.644l0.937-0.351
					c0.257-0.096,0.547,0.033,0.644,0.293c0.098,0.258-0.034,0.546-0.292,0.644l-0.937,0.351
					C26.682,10.341,26.622,10.351,26.563,10.351z"/>
			</g>
		</g>
		<g>
			<path d="M0.5,25c-0.088,0-0.177-0.022-0.257-0.071c-0.237-0.142-0.314-0.448-0.172-0.686c3.842-6.416,9.056-8.148,9.276-8.22
				c0.263-0.081,0.543,0.061,0.628,0.323s-0.06,0.544-0.322,0.629c-0.05,0.017-5.087,1.706-8.725,7.781C0.835,24.913,0.67,25,0.5,25
				z"/>
		</g>
		<g>
			<g>
				<path d="M8.703,1.457c-0.191,0-0.374-0.11-0.457-0.297L8.043,0.703c-0.112-0.252,0.002-0.548,0.254-0.66
					c0.252-0.111,0.548,0,0.66,0.254L9.16,0.754c0.112,0.252-0.002,0.548-0.254,0.66C8.84,1.443,8.771,1.457,8.703,1.457z"/>
			</g>
			<g>
				<path d="M11.398,7.521c-0.191,0-0.374-0.11-0.457-0.297l-0.449-1.011c-0.112-0.252,0.002-0.548,0.254-0.66
					c0.252-0.111,0.548,0,0.66,0.254l0.449,1.011c0.112,0.252-0.002,0.548-0.254,0.66C11.535,7.508,11.467,7.521,11.398,7.521z
					 M10.051,4.489c-0.191,0-0.374-0.11-0.457-0.297L9.145,3.182c-0.112-0.252,0.002-0.548,0.254-0.66
					c0.252-0.111,0.548,0,0.66,0.254l0.449,1.011c0.112,0.252-0.002,0.548-0.254,0.66C10.188,4.476,10.119,4.489,10.051,4.489z"/>
			</g>
			<g>
				<path d="M12.5,10c-0.191,0-0.374-0.11-0.457-0.297L11.84,9.246c-0.112-0.252,0.002-0.548,0.254-0.66
					c0.253-0.112,0.548,0.001,0.66,0.254l0.203,0.457c0.112,0.252-0.002,0.548-0.254,0.66C12.637,9.986,12.568,10,12.5,10z"/>
			</g>
		</g>
		<g>
			<g>
				<path d="M16.947,20.895c-0.183,0-0.359-0.102-0.447-0.276l-0.447-0.895c-0.123-0.247-0.023-0.547,0.224-0.671
					c0.248-0.123,0.547-0.023,0.671,0.224l0.447,0.895c0.123,0.247,0.023,0.547-0.224,0.671
					C17.099,20.878,17.022,20.895,16.947,20.895z"/>
			</g>
			<g>
				<path d="M19.018,25.035c-0.183,0-0.359-0.102-0.447-0.276l-1.035-2.07c-0.123-0.247-0.023-0.547,0.224-0.671
					c0.248-0.123,0.547-0.023,0.671,0.224l1.035,2.07c0.123,0.247,0.023,0.547-0.224,0.671
					C19.169,25.019,19.093,25.035,19.018,25.035z"/>
			</g>
			<g>
				<path d="M20.5,28c-0.183,0-0.359-0.102-0.447-0.276l-0.447-0.895c-0.123-0.247-0.023-0.547,0.224-0.671s0.547-0.022,0.671,0.224
					l0.447,0.895c0.123,0.247,0.023,0.547-0.224,0.671C20.651,27.983,20.575,28,20.5,28z"/>
			</g>
		</g>
		<g>
			<path d="M16.5,10c-0.062,0-0.125-0.011-0.186-0.036c-0.257-0.103-0.381-0.394-0.278-0.65l0.743-1.857
				c0.103-0.257,0.394-0.382,0.649-0.279c0.257,0.103,0.381,0.394,0.278,0.65l-0.743,1.857C16.886,9.881,16.698,10,16.5,10z
				 M17.985,6.286c-0.062,0-0.125-0.011-0.186-0.036c-0.257-0.103-0.381-0.394-0.278-0.65l0.515-1.286
				c0.103-0.257,0.395-0.381,0.649-0.279c0.257,0.103,0.381,0.394,0.278,0.65l-0.515,1.286C18.371,6.167,18.184,6.286,17.985,6.286z
				"/>
		</g>
		<g>
			<path d="M10.5,24c-0.075,0-0.151-0.017-0.224-0.053c-0.247-0.124-0.347-0.424-0.224-0.671l0.895-1.789
				c0.125-0.246,0.425-0.347,0.671-0.224c0.247,0.124,0.347,0.424,0.224,0.671l-0.895,1.789C10.859,23.898,10.683,24,10.5,24z
				 M12.289,20.422c-0.075,0-0.151-0.017-0.224-0.053c-0.247-0.124-0.347-0.424-0.224-0.671l0.211-0.422
				c0.125-0.247,0.424-0.346,0.671-0.224c0.247,0.124,0.347,0.424,0.224,0.671l-0.211,0.422
				C12.648,20.32,12.472,20.422,12.289,20.422z"/>
		</g>
		<g>
			<g>
				<path d="M3.975,11.158c-0.053,0-0.105-0.008-0.158-0.026l-0.475-0.158c-0.262-0.087-0.403-0.37-0.316-0.632
					c0.089-0.262,0.372-0.401,0.633-0.316l0.475,0.158c0.262,0.087,0.403,0.37,0.316,0.632C4.379,11.026,4.184,11.158,3.975,11.158z
					"/>
			</g>
			<g>
				<path d="M7.005,12.168c-0.053,0-0.105-0.008-0.158-0.026l-1.01-0.337c-0.262-0.087-0.403-0.371-0.316-0.632
					c0.088-0.262,0.373-0.402,0.633-0.316l1.01,0.337c0.262,0.087,0.403,0.371,0.316,0.632C7.409,12.036,7.214,12.168,7.005,12.168z
					"/>
			</g>
			<g>
				<path d="M9.5,13c-0.053,0-0.105-0.008-0.158-0.026l-0.475-0.158c-0.262-0.087-0.403-0.37-0.316-0.632
					c0.088-0.262,0.372-0.401,0.633-0.316l0.475,0.158c0.262,0.087,0.403,0.37,0.316,0.632C9.904,12.868,9.709,13,9.5,13z"/>
			</g>
		</g>
		<g>
			<g>
				<path d="M20.437,17.352c-0.059,0-0.118-0.01-0.176-0.032l-0.937-0.352c-0.259-0.097-0.39-0.385-0.292-0.644
					c0.097-0.258,0.387-0.392,0.644-0.292l0.937,0.352c0.259,0.097,0.39,0.385,0.292,0.644
					C20.829,17.228,20.639,17.352,20.437,17.352z"/>
			</g>
			<g>
				<path d="M24.521,18.883c-0.059,0-0.117-0.01-0.176-0.032l-2.043-0.766c-0.258-0.097-0.39-0.385-0.292-0.644
					c0.097-0.258,0.383-0.393,0.644-0.292l2.043,0.766c0.258,0.097,0.39,0.385,0.292,0.644
					C24.914,18.759,24.724,18.883,24.521,18.883z"/>
			</g>
			<g>
				<path d="M27.5,20c-0.059,0-0.118-0.01-0.176-0.032l-0.937-0.352c-0.259-0.097-0.39-0.385-0.292-0.644
					c0.097-0.258,0.388-0.392,0.644-0.292l0.937,0.352c0.259,0.097,0.39,0.385,0.292,0.644C27.893,19.876,27.702,20,27.5,20z"/>
			</g>
		</g>
		<g>
			<path d="M14.5,16c-0.827,0-1.5-0.673-1.5-1.5s0.673-1.5,1.5-1.5s1.5,0.673,1.5,1.5S15.327,16,14.5,16z M14.5,14
				c-0.275,0-0.5,0.224-0.5,0.5s0.225,0.5,0.5,0.5s0.5-0.224,0.5-0.5S14.775,14,14.5,14z"/>
		</g>
	</g>
</g>
<g id="Party_Glasses">
</g>
<g id="Barbeque">
</g>
<g id="Horn">
</g>
<g id="Speaker">
</g>
<g id="VIP">
</g>
<g id="Event_Ticket">
</g>
<g id="VIP_Ticket">
</g>
<g id="Popcorn">
</g>
<g id="Cord">
</g>
<g id="Invitation_1">
</g>
<g id="Invitation_2">
</g>
</svg>
