<?xml version="1.0" encoding="iso-8859-1"?>
<!-- Generator: Adobe Illustrator 19.2.1, SVG Export Plug-In . SVG Version: 6.00 Build 0)  -->
<svg version="1.1" xmlns="http://www.w3.org/2000/svg" xmlns:xlink="http://www.w3.org/1999/xlink" x="0px" y="0px"
	 viewBox="0 0 30 30" style="enable-background:new 0 0 30 30;" xml:space="preserve">
<g id="Event">
</g>
<g id="Event_2">
</g>
<g id="Add_Event">
</g>
<g id="Remove_Event">
</g>
<g id="Event_Reminder">
</g>
<g id="Wine_Glass">
</g>
<g id="Toast">
</g>
<g id="Champagne">
</g>
<g id="Champagne_Open">
</g>
<g id="Alcohol_Drink">
</g>
<g id="Beer_Glass">
</g>
<g id="Party_Cake">
</g>
<g id="Pizza_Food">
</g>
<g id="Disco_Ball">
</g>
<g id="Equalizer">
</g>
<g id="DJ">
</g>
<g id="Tent">
</g>
<g id="Firework_1">
</g>
<g id="Firework_2">
</g>
<g id="Party_Glasses">
</g>
<g id="Barbeque">
</g>
<g id="Horn">
	<g>
		<g>
			<path d="M0.5,30c-0.13,0-0.258-0.051-0.354-0.146c-0.139-0.14-0.184-0.348-0.114-0.531l8-21c0.098-0.26,0.385-0.389,0.646-0.289
				C8.936,8.131,9.065,8.42,8.967,8.678L1.364,28.636l19.958-7.603c0.257-0.1,0.546,0.029,0.646,0.289
				c0.098,0.258-0.031,0.547-0.289,0.645l-21,8C0.62,29.989,0.56,30,0.5,30z"/>
		</g>
		<g>
			<path d="M20.726,22.257c-0.835,0-1.851-0.404-2.688-0.83c-1.729-0.879-3.644-2.325-5.392-4.073
				c-3.296-3.296-5.954-7.753-4.5-9.207c0.828-0.829,2.532-0.227,3.815,0.427c1.729,0.879,3.644,2.325,5.392,4.073
				c3.296,3.296,5.954,7.753,4.5,9.207C21.565,22.142,21.171,22.257,20.726,22.257z M9.27,8.745c-0.213,0-0.352,0.043-0.417,0.108
				c-0.565,0.565,0.748,4.04,4.5,7.793c1.675,1.676,3.5,3.057,5.138,3.889c1.588,0.808,2.458,0.811,2.655,0.611
				c0.565-0.565-0.748-4.04-4.5-7.793c-1.675-1.676-3.5-3.057-5.138-3.889C10.444,8.924,9.703,8.745,9.27,8.745z"/>
		</g>
		<g>
			<path d="M10.5,6C10.224,6,10,5.776,10,5.5v-2C10,3.224,10.224,3,10.5,3S11,3.224,11,3.5v2C11,5.776,10.776,6,10.5,6z M10.5,2
				C10.224,2,10,1.776,10,1.5v-1C10,0.224,10.224,0,10.5,0S11,0.224,11,0.5v1C11,1.776,10.776,2,10.5,2z"/>
		</g>
		<g>
			<path d="M29.5,20h-1c-0.276,0-0.5-0.224-0.5-0.5s0.224-0.5,0.5-0.5h1c0.276,0,0.5,0.224,0.5,0.5S29.776,20,29.5,20z M26.5,20h-2
				c-0.276,0-0.5-0.224-0.5-0.5s0.224-0.5,0.5-0.5h2c0.276,0,0.5,0.224,0.5,0.5S26.776,20,26.5,20z"/>
		</g>
		<g>
			<g>
				<path d="M16.184,1.948c-0.052,0-0.106-0.008-0.158-0.025c-0.262-0.088-0.403-0.371-0.316-0.633l0.316-0.948
					c0.087-0.263,0.372-0.405,0.632-0.316c0.262,0.088,0.403,0.371,0.316,0.633l-0.316,0.948
					C16.588,1.816,16.393,1.948,16.184,1.948z"/>
			</g>
			<g>
				<path d="M15.272,4.684c-0.052,0-0.105-0.008-0.158-0.025c-0.262-0.088-0.403-0.371-0.316-0.633l0.456-1.367
					c0.087-0.261,0.368-0.405,0.632-0.316c0.262,0.088,0.403,0.371,0.316,0.633l-0.456,1.367
					C15.676,4.551,15.481,4.684,15.272,4.684z"/>
			</g>
			<g>
				<path d="M14.5,7c-0.052,0-0.106-0.008-0.158-0.025c-0.262-0.088-0.403-0.371-0.316-0.633l0.316-0.948
					c0.087-0.263,0.37-0.405,0.632-0.316c0.262,0.088,0.403,0.371,0.316,0.633l-0.316,0.948C14.904,6.868,14.709,7,14.5,7z"/>
			</g>
		</g>
		<g>
			<path d="M18.5,9c-0.113,0-0.226-0.038-0.319-0.116c-0.212-0.177-0.241-0.491-0.064-0.704l0.64-0.769
				C18.933,7.2,19.249,7.17,19.46,7.348c0.212,0.177,0.241,0.491,0.064,0.704l-0.64,0.769C18.785,8.938,18.643,9,18.5,9z
				 M20.42,6.695c-0.113,0-0.226-0.038-0.319-0.116c-0.212-0.177-0.241-0.491-0.064-0.704l0.64-0.769
				c0.177-0.211,0.492-0.24,0.704-0.063c0.212,0.177,0.241,0.491,0.064,0.704l-0.64,0.769C20.706,6.634,20.563,6.695,20.42,6.695z
				 M22.341,4.391c-0.113,0-0.226-0.038-0.319-0.116c-0.212-0.177-0.241-0.491-0.064-0.704l0.64-0.769
				c0.178-0.211,0.492-0.241,0.704-0.063c0.212,0.177,0.241,0.491,0.064,0.704l-0.64,0.769C22.626,4.329,22.484,4.391,22.341,4.391z
				"/>
		</g>
		<g>
			<path d="M21.5,12c-0.141,0-0.281-0.06-0.38-0.175c-0.18-0.21-0.155-0.525,0.055-0.705l0.167-0.143
				c0.21-0.18,0.525-0.154,0.705,0.055c0.18,0.21,0.155,0.525-0.055,0.705l-0.167,0.143C21.731,11.961,21.615,12,21.5,12z
				 M23.185,10.556c-0.141,0-0.281-0.06-0.379-0.175c-0.18-0.209-0.156-0.524,0.054-0.705l0.759-0.651
				c0.209-0.177,0.526-0.155,0.705,0.055c0.18,0.209,0.156,0.524-0.054,0.705l-0.759,0.651C23.417,10.516,23.3,10.556,23.185,10.556
				z M25.463,8.604c-0.141,0-0.281-0.06-0.379-0.175c-0.18-0.209-0.156-0.524,0.054-0.705l0.759-0.651
				c0.209-0.178,0.526-0.154,0.705,0.055c0.18,0.209,0.156,0.524-0.054,0.705l-0.759,0.651C25.694,8.563,25.578,8.604,25.463,8.604z
				 M27.741,6.65c-0.141,0-0.281-0.06-0.38-0.175c-0.18-0.21-0.155-0.525,0.055-0.705l0.759-0.65c0.21-0.18,0.525-0.154,0.705,0.055
				c0.18,0.21,0.155,0.525-0.055,0.705l-0.759,0.65C27.972,6.611,27.856,6.65,27.741,6.65z"/>
		</g>
		<g>
			<g>
				<path d="M28.513,14.164c-0.24,0-0.452-0.173-0.493-0.418c-0.045-0.272,0.139-0.53,0.411-0.575l0.986-0.164
					c0.271-0.046,0.53,0.138,0.575,0.411c0.045,0.272-0.139,0.53-0.411,0.575l-0.986,0.164
					C28.568,14.162,28.541,14.164,28.513,14.164z"/>
			</g>
			<g>
				<path d="M25.829,14.611c-0.24,0-0.452-0.173-0.493-0.418c-0.045-0.272,0.139-0.53,0.411-0.575l1.342-0.224
					c0.272-0.047,0.53,0.138,0.575,0.411c0.045,0.272-0.139,0.53-0.411,0.575l-1.342,0.224
					C25.883,14.609,25.856,14.611,25.829,14.611z"/>
			</g>
			<g>
				<path d="M23.5,15c-0.24,0-0.452-0.173-0.493-0.418c-0.045-0.272,0.139-0.53,0.411-0.575l0.986-0.164
					c0.272-0.046,0.53,0.138,0.575,0.411c0.045,0.272-0.139,0.53-0.411,0.575l-0.986,0.164C23.554,14.998,23.527,15,23.5,15z"/>
			</g>
		</g>
	</g>
</g>
<g id="Speaker">
</g>
<g id="VIP">
</g>
<g id="Event_Ticket">
</g>
<g id="VIP_Ticket">
</g>
<g id="Popcorn">
</g>
<g id="Cord">
</g>
<g id="Invitation_1">
</g>
<g id="Invitation_2">
</g>
</svg>
